<?xml version="1.0" encoding="utf-8"?>
<!-- Generator: Adobe Illustrator 23.0.3, SVG Export Plug-In . SVG Version: 6.00 Build 0)  -->
<svg version="1.1" id="Icons" xmlns="http://www.w3.org/2000/svg" x="0px" y="0px"
	 viewBox="0 0 32 32" style="enable-background:new 0 0 32 32;" xml:space="preserve">
<g>
	<path d="M23,28H3c-0.6,0-1,0.4-1,1s0.4,1,1,1h20c0.6,0,1-0.4,1-1S23.6,28,23,28z"/>
	<path d="M25,11c-0.7,0-1.4,0.2-2,0.6V11c0-0.6-0.4-1-1-1H4c-0.6,0-1,0.4-1,1v6.2C3,22.6,7.5,27,13,27c4.2,0,7.8-2.5,9.3-6.1
		C23,21.6,23.9,22,25,22c2.2,0,4-1.8,4-4v-3C29,12.8,27.2,11,25,11z M27,18c0,1.1-0.9,2-2,2s-2-0.9-2-2v-0.8V15c0-1.1,0.9-2,2-2
		s2,0.9,2,2V18z"/>
	<path d="M13,9c0.2,0,0.4-0.1,0.6-0.2c0.5-0.3,0.6-0.9,0.3-1.4c-1-1.5-1-3.4,0-4.9c0.3-0.5,0.2-1.1-0.3-1.4
		c-0.5-0.3-1.1-0.2-1.4,0.3c-1.4,2.2-1.4,5,0,7.1C12.4,8.8,12.7,9,13,9z"/>
	<path d="M9,9c0.2,0,0.4-0.1,0.6-0.2c0.5-0.3,0.6-0.9,0.3-1.4c-1-1.5-1-3.4,0-4.9c0.3-0.5,0.2-1.1-0.3-1.4C9.1,0.9,8.5,1,8.2,1.4
		c-1.4,2.2-1.4,5,0,7.1C8.4,8.8,8.7,9,9,9z"/>
	<path d="M17,9c0.2,0,0.4-0.1,0.6-0.2c0.5-0.3,0.6-0.9,0.3-1.4c-1-1.5-1-3.4,0-4.9c0.3-0.5,0.2-1.1-0.3-1.4
		c-0.5-0.3-1.1-0.2-1.4,0.3c-1.4,2.2-1.4,5,0,7.1C16.4,8.8,16.7,9,17,9z"/>
</g>
</svg>
